:SAMPLES-PER-SECOND 30
:FULLY-SPECIFIED
:DEGREES
445
root  -58.6585 37.978 -17.3952 -11.7172 78.0008 -9.51582
RightUpLeg  -23.6847 4.44077 8.5632
RightLeg  25.1419 -0.00655193 -0.218139
RightFoot  -0.528605 0.826441 -8.7584
RightToes  1.45519e-009 0 -3.6325e-017
Spine  13.3237 -3.56899 -4.02212
Spine1  11.0176 -6.59669 8.95928
HEad  -45.1581 -14.5306 5.00885
LeftShoulder1  -0.0259075 3.58602 -23.8574
LeftArm  -6.08584 -5.82493 -61.0562
LeftForeArm  33.6988 -11.3996 -6.33922
LeftHand  -0.0928548 10.1104 -0.88336
RightShoulder  -0.677045 -5.63552 25.0656
RightArm  0.832147 -6.48744 43.8657
RightForeArm  5.92632 15.7427 3.03242
RightHand  -0.349999 5.50505 -4.02444
LeftUpLeg  19.6431 19.2093 3.45634
LeftLeg  28.3886 -11.8867 -6.44859
LeftFoot  -9.09608 0.350192 -12.8594
LeftToes  -2.53752e-010 -2.07034e-011 -2.70101e-011
446
root  -57.4002 37.7861 -17.5407 -19.9945 79.1917 -17.7889
RightUpLeg  -23.786 3.52237 9.32668
RightLeg  29.475 -0.919044 -0.813614
RightFoot  -3.36991 0.65198 -9.63607
RightToes  1.45519e-009 0 -3.6325e-017
Spine  13.8669 -3.67311 -1.73809
Spine1  10.6093 -6.22588 9.26921
HEad  -44.4345 -14.1845 7.07007
LeftShoulder1  0.0873137 3.20526 -22.7999
LeftArm  -2.03464 -6.19162 -62.8447
LeftForeArm  30.9261 -13.6157 -6.48826
LeftHand  -0.0860358 10.5682 -0.602604
RightShoulder  -0.574811 -5.3264 24.7855
RightArm  0.00886442 -6.39128 45.1179
RightForeArm  4.70051 8.43877 2.16206
RightHand  -0.212115 4.27223 -2.81664
LeftUpLeg  13.0749 15.859 4.55625
LeftLeg  41.4874 -10.6074 -9.47421
LeftFoot  1.09363 1.83351 -17.2355
LeftToes  -2.53752e-010 -2.07034e-011 -2.70101e-011
447
root  -56.2674 37.5666 -17.6376 -32.9752 80.5393 -30.9126
RightUpLeg  -23.6473 2.26161 10.4578
RightLeg  32.841 -1.96568 -1.62498
RightFoot  -6.72536 0.342314 -9.55879
RightToes  1.45519e-009 0 -3.6325e-017
Spine  14.1161 -3.86865 0.809112
Spine1  10.5901 -5.95688 10.1072
HEad  -42.9636 -13.892 8.83094
LeftShoulder1  0.0128722 3.46067 -23.4019
LeftArm  5.40312 -7.47707 -63.0194
LeftForeArm  27.6309 -17.0516 -5.92181
LeftHand  -0.0994113 9.82475 -1.15937
RightShoulder  -0.576084 -5.34286 24.5686
RightArm  -0.427926 -6.82851 46.3998
RightForeArm  8.72133 5.1431 1.72303
RightHand  -0.0641696 0.963466 -1.20968
LeftUpLeg  4.79013 10.8511 5.07365
LeftLeg  53.9926 -7.90751 -11.0818
LeftFoot  14.4275 3.78672 -16.7705
LeftToes  -2.53752e-010 -2.07034e-011 -2.70101e-011
448
root  -55.0992 37.5184 -17.7789 -44.4133 80.9333 -41.9986
RightUpLeg  -21.9385 0.986164 11.1434
RightLeg  34.3982 -2.17325 -1.87586
RightFoot  -9.55491 0.0733153 -8.68287
RightToes  1.45519e-009 0 -3.6325e-017
Spine  14.1768 -3.85283 3.5939
Spine1  11.124 -5.13917 9.59347
HEad  -42.3223 -14.2669 10.0044
LeftShoulder1  0.0138338 3.45807 -23.7974
LeftArm  10.388 -7.5497 -62.9959
LeftForeArm  25.2774 -22.3899 -4.0437
LeftHand  -0.112415 9.10561 -1.84846
RightShoulder  -0.601919 -5.42999 24.4936
RightArm  0.940678 -7.26305 47.9319
RightForeArm  15.9409 5.38331 2.13188
RightHand  0.0374309 -1.16749 1.08742
LeftUpLeg  -1.83735 6.96337 5.86493
LeftLeg  62.6561 -5.86094 -11.5478
LeftFoot  20.3294 4.68321 -16.8272
LeftToes  -2.53752e-010 -2.07034e-011 -2.70101e-011
449
root  -53.7543 37.7803 -17.9049 -49.1338 81.6272 -45.995
RightUpLeg  -18.4305 0.308966 10.4853
RightLeg  33.8096 -2.32113 -1.9485
RightFoot  -11.8023 -0.110203 -7.2867
RightToes  1.45519e-009 0 -3.6325e-017
Spine  14.7237 -3.60978 4.31256
Spine1  10.507 -4.51899 9.28372
HEad  -41.3018 -14.957 10.1753
LeftShoulder1  0.0302712 3.40382 -23.9135
LeftArm  8.82334 -6.12984 -62.1132
LeftForeArm  25.7378 -27.3615 -4.43388
LeftHand  -0.0765113 8.94978 -0.818224
RightShoulder  -0.688441 -5.67917 24.9673
RightArm  4.1392 -7.52141 48.5195
RightForeArm  21.6884 7.79169 3.36052
RightHand  0.124127 -0.22404 2.85639
LeftUpLeg  -7.25577 3.89285 5.71019
LeftLeg  67.8246 -4.09879 -10.304
LeftFoot  15.2536 2.83489 -12.2916
LeftToes  -2.53752e-010 -2.07034e-011 -2.70101e-011
450
root  -52.3496 38.1412 -18.0402 -47.0236 82.3207 -43.673
RightUpLeg  -14.8763 0.0598098 9.15011
RightLeg  32.1585 -2.24397 -1.78741
RightFoot  -13.3884 -0.206672 -6.48085
RightToes  1.45519e-009 0 -3.6325e-017
Spine  14.1215 -3.31575 4.12221
Spine1  10.3252 -4.12386 8.7715
HEad  -39.8952 -14.6904 9.6294
LeftShoulder1  -0.0688365 3.73077 -23.9684
LeftArm  6.89132 -4.32311 -60.7605
LeftForeArm  24.7606 -31.5206 -5.51713
LeftHand  -0.00647616 8.60831 1.38336
RightShoulder  -0.678047 -5.66068 24.7406
RightArm  8.07912 -7.84685 49.8193
RightForeArm  24.2457 11.9858 4.3695
RightHand  0.147171 0.593246 2.80224
LeftUpLeg  -12.404 1.73351 5.06781
LeftLeg  69.0523 -3.18654 -8.43967
LeftFoot  11.1125 1.38671 -7.3967
LeftToes  -2.53752e-010 -2.07034e-011 -2.70101e-011
451
root  -50.9213 38.4756 -18.2046 -43.7495 82.7413 -40.0993
RightUpLeg  -10.9247 -0.991111 7.76447
RightLeg  29.9055 -1.28032 -1.08397
RightFoot  -14.665 -0.269498 -5.87155
RightToes  1.45519e-009 0 -3.6325e-017
Spine  13.8708 -3.04205 4.02682
Spine1  9.57236 -3.76741 8.46065
HEad  -38.7583 -14.7964 8.17451
LeftShoulder1  -0.126299 3.91568 -24.3852
LeftArm  5.45132 -2.46585 -59.0685
LeftForeArm  23.7422 -34.4226 -6.30449
LeftHand  0.0407386 8.26463 3.21836
RightShoulder  -0.631611 -5.52693 24.4975
RightArm  13.6347 -8.31542 50.5134
RightForeArm  22.6315 17.3004 4.2698
RightHand  0.1992 1.00762 3.53845
LeftUpLeg  -16.4587 0.248811 4.92786
LeftLeg  67.1008 -2.40751 -5.61826
LeftFoot  7.89231 0.99784 -6.1802
LeftToes  -2.53752e-010 -2.07034e-011 -2.70101e-011
452
root  -49.4971 38.767 -18.3851 -37.3212 82.9261 -33.1557
RightUpLeg  -6.60167 -3.10371 5.92385
RightLeg  27.2012 1.12042 0.16748
RightFoot  -15.7681 -0.322277 -5.56167
RightToes  1.45519e-009 0 -3.6325e-017
Spine  13.766 -2.69842 3.46125
Spine1  9.17879 -3.4779 8.11325
HEad  -38.0787 -14.779 6.48293
LeftShoulder1  -0.158247 4.0199 -24.3763
LeftArm  3.61592 -0.651493 -57.6893
LeftForeArm  24.3198 -36.626 -6.86136
LeftHand  0.0222092 7.45719 3.26457
RightShoulder  -0.607077 -5.47102 24.1143
RightArm  17.2196 -8.2925 50.9492
RightForeArm  18.6992 22.7702 4.02209
RightHand  0.140346 2.25616 1.99709
LeftUpLeg  -19.148 -0.200692 4.80965
LeftLeg  62.0669 -1.96243 -3.41198
LeftFoot  4.64653 0.686645 -5.07477
LeftToes  -2.53752e-010 -2.07034e-011 -2.70101e-011
453
root  -48.0637 38.9872 -18.5545 -25.9903 82.1578 -21.5305
RightUpLeg  -2.67519 -4.43517 3.94938
RightLeg  24.6742 3.8403 1.03315
RightFoot  -16.6446 -0.37716 -5.71607
RightToes  1.45519e-009 0 -3.6325e-017
Spine  13.0849 -1.93806 2.6649
Spine1  9.6153 -2.80328 7.4605
HEad  -37.9202 -14.419 5.70586
LeftShoulder1  -0.161338 4.03604 -23.9786
LeftArm  1.62313 0.909024 -56.658
LeftForeArm  25.4096 -38.2688 -7.25593
LeftHand  0.035708 7.93389 3.38069
RightShoulder  -0.575368 -5.38314 23.8492
RightArm  16.3935 -7.62116 51.0244
RightForeArm  17.3875 27.7874 5.03281
RightHand  0.0746038 4.07201 0.605638
LeftUpLeg  -20.5836 0.95928 4.87824
LeftLeg  54.0804 -2.70214 -3.52519
LeftFoot  1.88767 0.445621 -3.9678
LeftToes  -2.53752e-010 -2.07034e-011 -2.70101e-011
454
root  -46.6636 39.0955 -18.7278 -19.7465 81.0974 -15.0914
RightUpLeg  1.00201 -6.15699 2.06307
RightLeg  22.4055 7.06738 1.93686
RightFoot  -17.691 -0.425035 -5.50183
RightToes  1.45519e-009 0 -3.6325e-017
Spine  12.7962 -1.48428 2.28048
Spine1  9.72254 -2.309 6.45531
HEad  -38.2069 -14.1623 5.25204
LeftShoulder1  -0.113733 3.88711 -23.3428
LeftArm  -0.0956349 2.2843 -55.4664
LeftForeArm  25.7641 -38.7011 -7.35961
LeftHand  0.0375342 8.11579 3.29164
RightShoulder  -0.591243 -5.4454 23.6946
RightArm  14.9284 -6.16096 51.2727
RightForeArm  17.6761 32.1063 6.06636
RightHand  0.0998202 4.93698 0.826531
LeftUpLeg  -20.9702 2.20091 5.40253
LeftLeg  43.6895 -4.42624 -4.08003
LeftFoot  0.333683 0.413602 -4.06427
LeftToes  -2.53752e-010 -2.07034e-011 -2.70101e-011
